<?xml version="1.0" encoding="UTF-8" standalone="no"?>
<!DOCTYPE svg PUBLIC "-//W3C//DTD SVG 1.1//EN" "http://www.w3.org/Graphics/SVG/1.1/DTD/svg11.dtd">
<svg width="100%" height="100%" viewBox="0 0 912 612" version="1.1" xmlns="http://www.w3.org/2000/svg" xmlns:xlink="http://www.w3.org/1999/xlink" xml:space="preserve" xmlns:serif="http://www.serif.com/" style="fill-rule:evenodd;clip-rule:evenodd;stroke-linejoin:round;stroke-miterlimit:2;">
    <g transform="matrix(1,0,0,1,6,6)">
        <g transform="matrix(0.76,0,0,1.02,-6,-6)">
            <path d="M0,594.118L0,0L2.79,1.395C4.166,0.525 5.948,0 7.895,0L1192.11,0C1193.49,0 1194.78,0.264 1195.91,0.727L1200,0.763L1197.84,1.841C1199.18,2.894 1200,4.317 1200,5.882L1200,600L1197.21,598.605C1195.83,599.475 1194.05,600 1192.11,600L7.895,600C6.075,600 4.398,599.541 3.063,598.77L0,598.725L1.778,597.837C0.667,596.824 0,595.529 0,594.118ZM158.72,11.765C90.611,11.765 41.672,11.765 23.53,11.765L399.681,199.833L310.893,199.567L15.789,52.282L15.789,75.767L261.533,199.833L15.789,199.833L15.789,239.419L539.99,239.538L539.99,11.765C526.35,11.765 512.753,11.765 499.232,11.765L499.232,182.857L158.72,11.765ZM700.768,11.765C687.258,11.765 673.673,11.765 660.044,11.765L660.044,239.704L1184.21,239.704L1184.21,199.833L938.467,199.833L1184.21,75.767L1184.21,11.765C1184.21,11.765 1182.07,11.765 1177.96,11.765L801.671,199.567L712.883,199.833L1089.03,11.765C1074.46,11.765 1058.48,11.765 1041.28,11.765L700.768,182.857L700.768,11.765ZM1184.21,400.167L1184.21,359.609L659.412,359.609L659.412,588.235C673.255,588.235 687.051,588.235 700.768,588.235L700.768,417.143L1041.28,588.235C1109.41,588.235 1158.33,588.235 1176.47,588.235L800.319,400.167L889.107,400.433L1184.21,547.718L1184.21,524.233L938.467,400.167L1184.21,400.167ZM499.232,588.235C512.803,588.235 526.444,588.235 540.126,588.235L540.126,359.63L15.789,359.63L15.789,400.167L261.533,400.167L15.789,524.233L15.789,588.235C17.32,588.235 19.064,588.235 21.017,588.235L397.303,400.433L486.091,400.167L109.94,588.235C124.889,588.235 141.21,588.235 158.72,588.235L499.232,417.143L499.232,588.235Z" style="fill:white;"/>
        </g>
    </g>
</svg>
