<?xml version="1.0" encoding="UTF-8" standalone="no"?>
<!DOCTYPE svg PUBLIC "-//W3C//DTD SVG 1.1//EN" "http://www.w3.org/Graphics/SVG/1.1/DTD/svg11.dtd">
<svg width="100%" height="100%" viewBox="0 0 912 612" version="1.1" xmlns="http://www.w3.org/2000/svg" xmlns:xlink="http://www.w3.org/1999/xlink" xml:space="preserve" xmlns:serif="http://www.serif.com/" style="fill-rule:evenodd;clip-rule:evenodd;stroke-linejoin:round;stroke-miterlimit:2;">
    <g transform="matrix(1,0,0,1,6,6)">
        <g transform="matrix(1,0,0,1,300,0)">
            <path d="M606,0L606,600C606,603.314 603.314,606 600,606L-300,606C-303.314,606 -306,603.314 -306,600L-306,-0C-306,-3.314 -303.314,-6 -300,-6L600,-6C603.314,-6 606,-3.314 606,0ZM-0,6C-162.117,6 -294,6 -294,6L-294,594C-266.142,594 -144.622,594 0,594L-0,6ZM300,594C462.301,594 594,594 594,594L594,6C594,6 462.117,6 300,6L300,594Z" style="fill:white;"/>
        </g>
    </g>
</svg>
