<?xml version="1.0" encoding="UTF-8" standalone="no"?>
<!DOCTYPE svg PUBLIC "-//W3C//DTD SVG 1.1//EN" "http://www.w3.org/Graphics/SVG/1.1/DTD/svg11.dtd">
<svg width="100%" height="100%" viewBox="0 0 282 266" version="1.1" xmlns="http://www.w3.org/2000/svg" xmlns:xlink="http://www.w3.org/1999/xlink" xml:space="preserve" xmlns:serif="http://www.serif.com/" style="fill-rule:evenodd;clip-rule:evenodd;stroke-linejoin:round;stroke-miterlimit:2;">
    <g transform="matrix(1,0,0,1,-186.045,-2848.89)">
        <g transform="matrix(1,0,0,1,-214.3,2327.43)">
            <g transform="matrix(16.5697,0,0,16.5697,383.775,521.476)">
                <path d="M9.991,12.266L6.366,9.003C4.497,9.072 3,10.613 3,12.5C3,12.622 3.006,12.744 3.019,12.863C3.075,13.409 2.7,14 2.15,14L2,14C1.447,14 1,14.447 1,15C1,15.553 1.447,16 2,16L6.5,16C8.434,16 10,14.434 10,12.5C10,12.422 9.997,12.344 9.994,12.266L9.991,12.266Z" style="fill:rgb(188,128,244);fill-rule:nonzero;"/>
            </g>
        </g>
        <g transform="matrix(1,0,0,1,-214.3,2327.43)">
            <g transform="matrix(16.5697,0,0,16.5697,383.775,521.476)">
                <path d="M10.603,11.472C11.456,11.35 12.225,10.866 12.703,10.131L17.756,2.316C18.15,1.706 18.05,0.9 17.519,0.403C16.988,-0.094 16.178,-0.138 15.597,0.3L8.2,5.85C7.45,6.412 7.006,7.291 7,8.228L10.603,11.472Z" style="fill:rgb(205,160,247);fill-rule:nonzero;"/>
            </g>
        </g>
    </g>
</svg>
