<?xml version="1.0" encoding="UTF-8" standalone="no"?>
<!DOCTYPE svg PUBLIC "-//W3C//DTD SVG 1.1//EN" "http://www.w3.org/Graphics/SVG/1.1/DTD/svg11.dtd">
<svg width="100%" height="100%" viewBox="0 0 295 276" version="1.1" xmlns="http://www.w3.org/2000/svg" xmlns:xlink="http://www.w3.org/1999/xlink" xml:space="preserve" xmlns:serif="http://www.serif.com/" style="fill-rule:evenodd;clip-rule:evenodd;stroke-linejoin:round;stroke-miterlimit:2;">
    <g transform="matrix(1,0,0,1,-2070.6,-2659.12)">
        <g transform="matrix(1,0,0,1,1678.06,2143.15)">
            <g transform="matrix(1,0,0,1,-50,-2337.43)">
                <path d="M737.335,2862.06L737.335,2958.45C737.329,2958.49 718.664,2942.97 718.682,2942.88L517.383,2942.88C512.608,2942.88 508.73,2939.01 508.73,2934.23L508.73,2862.06C508.73,2857.28 512.608,2853.41 517.383,2853.41L728.682,2853.41C733.458,2853.41 737.335,2857.28 737.335,2862.06Z" style="fill:rgb(205,160,247);"/>
            </g>
            <g transform="matrix(1,0,0,1,-50,-2167.35)">
                <path d="M737.335,2885.06L737.335,2958.45C737.329,2958.49 718.664,2942.97 718.682,2942.88L467.383,2942.88C462.608,2942.88 458.73,2939.01 458.73,2934.23L458.73,2885.06C458.73,2880.28 462.608,2876.41 467.383,2876.41L728.682,2876.41C733.458,2876.41 737.335,2880.28 737.335,2885.06Z" style="fill:rgb(205,160,247);"/>
            </g>
            <g transform="matrix(-1,0,0,1,1129.88,-2262.39)">
                <path d="M737.335,2902.06L737.335,2958.45C737.329,2958.49 718.664,2942.97 718.682,2942.88L557.383,2942.88C552.608,2942.88 548.73,2939.01 548.73,2934.23L548.73,2902.06C548.73,2897.28 552.608,2893.41 557.383,2893.41L728.682,2893.41C733.458,2893.41 737.335,2897.28 737.335,2902.06Z" style="fill:rgb(188,128,244);"/>
            </g>
        </g>
    </g>
</svg>
