<?xml version="1.0" encoding="UTF-8" standalone="no"?>
<!DOCTYPE svg PUBLIC "-//W3C//DTD SVG 1.1//EN" "http://www.w3.org/Graphics/SVG/1.1/DTD/svg11.dtd">
<svg width="100%" height="100%" viewBox="0 0 205 252" version="1.1" xmlns="http://www.w3.org/2000/svg" xmlns:xlink="http://www.w3.org/1999/xlink" xml:space="preserve" xmlns:serif="http://www.serif.com/" style="fill-rule:evenodd;clip-rule:evenodd;stroke-linejoin:round;stroke-miterlimit:2;">
    <g transform="matrix(1,0,0,1,-1491.03,-2851.53)">
        <g transform="matrix(1,0,0,1,1051.99,2327.43)">
            <g transform="matrix(15.7102,0,0,15.7102,431.181,524.1)">
                <path d="M0.706,14.794C0.575,14.925 0.5,15.106 0.5,15.294C0.5,15.684 0.816,16 1.206,16L12.794,16C13.184,16 13.5,15.684 13.5,15.294C13.5,15.106 13.425,14.925 13.294,14.794L12,13.5L2,13.5L0.706,14.794Z" style="fill:rgb(188,128,244);fill-rule:nonzero;"/>
            </g>
        </g>
        <g transform="matrix(1,0,0,1,1051.99,2327.43)">
            <g transform="matrix(15.7102,0,0,15.7102,431.181,524.1)">
                <path d="M3,1.5L2.584,1.916C2.209,2.291 2,2.797 2,3.328L2,7.466C2,7.8 2.166,8.113 2.444,8.297L2.775,8.516C3.222,8.816 3.797,8.85 4.278,8.609L4.378,8.559C4.459,8.519 4.534,8.472 4.606,8.419L6.15,7.262C6.356,7.106 6.641,7.106 6.847,7.262C7.166,7.503 7.156,7.984 6.825,8.209L2.825,10.938C2.309,11.291 2,11.875 2,12.5L12,12.5L12.903,7.531C12.969,7.178 13,6.819 13,6.459L13,6C13,2.688 10.313,0 7,0L2.619,0C2.278,0 2,0.278 2,0.619C2,0.853 2.131,1.066 2.341,1.172L3,1.5ZM3.75,3.625C3.75,3.282 4.032,3 4.375,3C4.718,3 5,3.282 5,3.625C5,3.968 4.718,4.25 4.375,4.25C4.032,4.25 3.75,3.968 3.75,3.625Z" style="fill:rgb(205,160,247);fill-rule:nonzero;"/>
            </g>
        </g>
    </g>
</svg>
